<svg width="778" height="681" fill="none" xmlns="http://www.w3.org/2000/svg"><g opacity=".7" stroke="#363636" stroke-width=".75" stroke-linecap="round" stroke-linejoin="round"><path d="M661.68 570.889s.146-.695.452-1.741"/><path d="M663.462 565.538c3.305-10.538 12.768-33.609 34.343-37.109 28.08-4.585 26.787 20.444 6.241 26.063-20.547 5.618-24.88-24.646-11.296-43.551 13.583-18.905 53.916-57.082 29.311-81.307-24.688-24.135-57.186 41.256-81.246 20.028-24.061-21.227-32.272-94.78-62.546-77.627-30.275 17.153-34.08 71.391-46.025 67.58-10.199-3.181-6.671-14.675-8.411-21.939" stroke-dasharray="3 3"/><path d="M523.368 416.231a8.867 8.867 0 00-.918-1.517"/></g><g opacity=".3"><path d="M54.513 458.693l14.296 12.799c1.03.931.775 2.603-.465 3.24l-20.908 10.965s1.075-20.726 1.428-20.575c.354.151 5.649-6.429 5.649-6.429z" fill="#4A97C9"/><path d="M2.65 489.001c9.019-9.172 38.784-38.479 50.011-49.533 1.482-1.456 3.913-.295 3.673 1.753l-1.982 17.337 14.275 12.731c.566.487.77 1.25.576 1.966-.126.56-14.116-4.493-14.116-4.493s4.552 21.049 6.717 31.004c.546 2.445-1.648 4.702-4.127 4.196-12.425-2.603-43.539-9.133-54.137-11.387-1.506-.397-2.083-2.363-.89-3.574z" fill="#78C8FF"/><path d="M69.401 473.247c-.126.562-14.144-4.501-14.144-4.501l-35.886 16.065c-.22.09-.433-.247-.19-.389L54.47 458.5l14.303 12.756c.595.562.8 1.326.628 1.991z" fill="#5CA8DB"/></g><path d="M420.964 294.881c35.597 9.756 44.109 6.968 50.455 16.569.774 1.084 4.488 6.659 3.715 13.937-.62 5.73-3.715 10.221-5.727 12.079-12.227 11.769-45.812-2.632-65.003-18.428-4.179-3.407-15.477-12.698-13.155-19.202.928-2.632 3.869-4.026 5.881-4.955 8.976-4.181 18.572-1.549 23.834 0z" fill="url(#paint0_linear)"/><path d="M531.006 55.318h-7.584v49.709h7.584v-49.71z" fill="url(#paint1_linear)"/><path d="M553.449 132.591h-52.313a6.937 6.937 0 01-6.964-6.969v-18.737a6.937 6.937 0 016.964-6.969h52.313a6.937 6.937 0 016.964 6.969v18.737a6.937 6.937 0 01-6.964 6.969z" fill="url(#paint2_linear)"/><path d="M646 241.3c0 30.197-24.453 54.819-54.788 54.819H463.218c-30.025 0-54.788-24.622-54.788-54.819v-28.493c0-53.581 43.799-97.405 97.35-97.405h42.716c53.55 0 97.35 43.824 97.35 97.405V241.3H646z" fill="url(#paint3_linear)"/><path d="M608.544 236.19c-3.096 1.549-6.655 2.323-10.06 2.323H455.941c-3.559 0-6.964-.774-10.06-2.323-7.583-3.717-11.917-11.459-10.833-19.202l.154-.62c3.715-26.48 27.549-46.766 56.955-48.315 12.382-.619 25.537-.929 39.157-.929 10.679 0 20.894.31 30.954.929 29.561 1.549 53.705 21.835 57.264 48.315 0 .155 0 .31.155.62.774 7.743-3.405 15.485-11.143 19.202z" fill="url(#paint4_linear)"/><path d="M489.684 232.783c14.873 0 26.93-12.064 26.93-26.945s-12.057-26.945-26.93-26.945-26.93 12.064-26.93 26.945 12.057 26.945 26.93 26.945z" fill="url(#paint5_radial)"/><path d="M489.682 225.195c10.685 0 19.346-8.666 19.346-19.357 0-10.691-8.661-19.357-19.346-19.357-10.684 0-19.346 8.666-19.346 19.357 0 10.691 8.662 19.357 19.346 19.357z" fill="#EEFDFF"/><path d="M489.684 222.098c8.975 0 16.251-7.28 16.251-16.26s-7.276-16.26-16.251-16.26c-8.975 0-16.25 7.28-16.25 16.26s7.275 16.26 16.25 16.26z" fill="url(#paint6_linear)"/><path d="M500.052 201.657c0 3.252-2.631 6.039-6.036 6.039-3.25 0-6.036-2.632-6.036-6.039 0-3.407 2.632-6.039 6.036-6.039 3.405 0 6.036 2.632 6.036 6.039zM487.361 220.55a2.322 2.322 0 002.321-2.323 2.322 2.322 0 10-2.321 2.323zM481.324 214.665c0 .619-.464 1.239-1.238 1.239-.619 0-1.238-.465-1.238-1.239 0-.62.464-1.239 1.238-1.239s1.238.619 1.238 1.239z" fill="#EEFDFF"/><path d="M562.27 232.783c14.873 0 26.93-12.064 26.93-26.945s-12.057-26.945-26.93-26.945-26.93 12.064-26.93 26.945 12.057 26.945 26.93 26.945z" fill="url(#paint7_radial)"/><path d="M562.268 225.195c10.685 0 19.346-8.666 19.346-19.357 0-10.691-8.661-19.357-19.346-19.357s-19.346 8.666-19.346 19.357c0 10.691 8.661 19.357 19.346 19.357z" fill="#EEFDFF"/><path d="M562.27 222.098c8.975 0 16.251-7.28 16.251-16.26s-7.276-16.26-16.251-16.26c-8.975 0-16.25 7.28-16.25 16.26s7.275 16.26 16.25 16.26z" fill="url(#paint8_linear)"/><path d="M572.638 201.657c0 3.252-2.631 6.039-6.036 6.039-3.25 0-6.036-2.632-6.036-6.039 0-3.407 2.632-6.039 6.036-6.039 3.405 0 6.036 2.632 6.036 6.039zM559.794 220.55a2.323 2.323 0 10-.001-4.645 2.323 2.323 0 00.001 4.645zM553.91 214.665c0 .619-.464 1.239-1.238 1.239s-1.238-.465-1.238-1.239c0-.62.464-1.239 1.238-1.239s1.238.619 1.238 1.239z" fill="#EEFDFF"/><path d="M536.888 51.91a9.713 9.713 0 01-9.751 9.757 9.712 9.712 0 01-9.75-9.756 9.712 9.712 0 019.75-9.756c5.417.155 9.751 4.49 9.751 9.756z" fill="url(#paint9_linear)"/><path d="M533.948 48.194c0 1.704-1.393 2.942-2.941 2.942-1.702 0-2.941-1.393-2.941-2.942 0-1.703 1.393-2.942 2.941-2.942 1.702 0 2.941 1.239 2.941 2.942zM610.868 146.683c.155 4.491-3.56 9.911-7.739 10.375-4.024.465-7.119-3.561-10.369-7.743-3.25-4.181-10.215-14.711-7.429-17.808 3.56-3.872 25.227 4.491 25.537 15.176zM574.499 129.339a3.407 3.407 0 000-6.814 3.406 3.406 0 00-3.405 3.407 3.405 3.405 0 003.405 3.407zM610.402 209.555c-1.083.774-8.667-14.557-28.942-28.029-7.119-4.646-14.084-8.053-13.774-8.982.464-.929 8.357.774 14.703 3.717 20.275 9.601 29.251 32.365 28.013 33.294zM558.554 109.517c-.309 0-.464-1.393-1.548-3.561 0 0-.619-1.084-1.238-1.859-2.012-2.787-8.976-2.787-9.441-2.787-10.679.155-17.643-.619-17.643-.465 0 0 5.107 0 8.667-.154 10.369-.155 16.56-.775 19.346 2.013 1.083 1.084 1.702 2.632 1.702 2.632.619 2.013.31 4.181.155 4.181z" fill="#fff"/><path d="M556.232 250.127c-.31 2.633-2.476 4.491-4.953 4.801l-35.597 3.407c-2.631.309-5.107-1.239-5.881-3.717-.309-1.084-.619-2.168-.774-3.407 0-.31 0-.619.31-.929a.85.85 0 01.774-.465l44.883-4.336c.309 0 .619 0 .928.31.31.155.465.465.465.774 0 1.239 0 2.323-.155 3.562z" fill="#EEFDFF"/><path d="M556.233 250.127c-1.083 10.995-9.905 20.132-21.358 21.216-11.298 1.084-21.513-5.885-24.918-16.26.929 2.168 3.25 3.561 5.726 3.252l35.597-3.407c2.632-.31 4.644-2.323 4.953-4.801z" fill="url(#paint10_linear)"/><path d="M612.26 330.033v.929c-.155 2.943-.774 5.265-1.083 6.195-9.751 29.887-15.632 45.682-23.835 58.535a93.312 93.312 0 01-4.488 6.349c-2.167 2.788-4.334 5.42-6.965 8.208-5.726 6.194-14.238 8.982-17.024 9.911-10.06 3.561-19.037 2.942-25.073 2.942h-1.083c-6.036 0-14.858.619-25.073-2.942-2.786-.929-11.453-3.717-17.025-9.911-15.631-17.034-21.667-31.126-35.442-73.092-.309-.93-.928-3.098-1.083-5.885v-2.478c.309-4.955 2.321-9.911 5.881-14.401 6.191-7.743 15.787-11.924 25.692-11.924l47.669-.155 46.74-.155c10.06 0 19.811 4.181 26.311 12.079 3.095 3.716 5.107 7.897 5.726 12.079.155.619.155 1.238.31 1.858-.155.464-.155 1.239-.155 1.858z" fill="url(#paint11_linear)"/><path d="M533.172 302.314l-47.669.155c-9.906 0-19.501 4.336-25.692 11.923-3.56 4.491-5.572 9.447-5.881 14.402.309-5.11 2.321-10.22 6.19-14.866 6.346-7.743 16.251-12.079 26.311-12.079l46.741.465z" fill="url(#paint12_linear)"/><path d="M580.533 372.464c-.62-37.011-5.727-44.289 1.702-53.116.774-1.084 5.107-6.194 12.227-7.433 5.726-1.084 10.834.774 13.31 2.168 14.703 8.362 10.369 44.754.619 67.672-2.167 4.956-7.893 18.428-14.703 18.119-2.786-.155-4.953-2.478-6.346-4.182-6.655-7.742-6.809-17.653-6.809-23.228z" fill="url(#paint13_linear)"/><path d="M587.19 395.692a93.595 93.595 0 01-4.489 6.35c-.464-.465-.928-1.084-1.393-1.549-6.5-7.588-6.655-17.499-6.655-23.074-.774-37.01-5.726-44.289 1.703-53.115.464-.62 2.476-2.943 5.726-4.956-7.274 8.827-2.321 16.105-1.548 52.961 0 5.73.155 15.641 6.656 23.383z" fill="url(#paint14_linear)"/><path d="M608.079 341.802c-.154-4.026-.928-6.813-2.476-12.698-2.012-7.588-4.333-11.305-2.786-12.853 1.084-.929 3.096-.31 3.56-.155 6.965 2.168 9.131 15.331 8.822 23.538-.155 4.956-1.393 10.685-3.25 10.84-.31 0-1.084 0-1.548-.464-2.012-1.859-2.167-5.266-2.322-8.208zM612.88 355.739c0 .775-.619 1.394-1.393 1.394a1.387 1.387 0 01-1.393-1.394c0-.774.619-1.393 1.393-1.393s1.393.619 1.393 1.393z" fill="#fff"/><path d="M531.007 490.155c41.969 0 75.992-13.936 75.992-31.126 0-17.191-34.023-31.127-75.992-31.127s-75.991 13.936-75.991 31.127c0 17.19 34.022 31.126 75.991 31.126z" fill="url(#paint15_radial)"/><path d="M353.641 115.866s-2.941-26.635-1.548-27.41c1.548-.619 2.167 13.938 1.548 27.41zM356.58 129.339c0 .929-.774 1.549-1.548 1.549-.929 0-1.548-.775-1.548-1.549 0-.929.774-1.548 1.548-1.548s1.548.619 1.548 1.548zM335.686 117.725c0-1.549-.154-5.73-3.25-9.137-2.631-2.942-6.191-3.871-7.738-3.716-.31 0-1.393.155-1.393.619-.155.929 4.179 1.549 7.274 3.872 1.702 1.393 3.714 3.716 5.107 8.362zM294.211 90.16c1.702 0 2.322 29.888 1.857 35.308-.464 5.265-2.476-35.308-1.857-35.308zM257.372 115.712c-.774-4.027-5.262-8.517-8.203-7.898-2.94.774 3.405 2.942 5.727 4.801 2.167 2.013 2.476 3.097 2.476 3.097zM232.146 138.63c3.405 3.717 8.048 4.491 8.203 4.336 0-.155-5.263-.929-8.048-5.11-1.239-2.013-2.631-5.575-3.405-5.575h-.155c-.464.31 1.238 4.027 3.405 6.349zM219.92 138.011c-1.084 1.394-1.239-36.236-1.858-39.953v-.31-1.703c0-.155-.154-.93-.309-1.084-1.393-1.239-7.584-.62-4.953-.93 2.322-.309 4.953 0 5.727.155.309.155.309.62.309.93 1.238 7.433 2.477 40.882 1.084 42.895z" fill="#fff"/><path d="M217.924 70.953l10.577 33.558c.755 2.433-1.128 4.751-3.603 4.522l-41.931-3.508s20.128-30.773 20.537-30.197c.41.576 14.42-4.375 14.42-4.375z" fill="#4A97C9"/><path d="M111.403 67.655c22.03-5.303 93.881-21.326 120.983-27.37 3.573-.793 6.276 3.352 4.082 6.26l-18.49 24.67 10.598 33.41a3.435 3.435 0 01-.866 3.577c-.694.737-17.692-20.617-17.692-20.617s-11.756 36.717-17.295 54.096c-1.339 4.281-6.722 5.611-10.082 2.424-16.776-16.074-58.775-56.342-73.055-70.102-1.96-2.074-1.095-5.651 1.817-6.348z" fill="#78C8FF"/><path d="M227.731 108.177c-.693.736-17.672-20.594-17.672-20.594l-69.25-10.21c-.418-.076-.445-.797.054-.78l77.089-5.444 10.586 33.373c.412 1.437.048 2.805-.807 3.655z" fill="#5CA8DB"/><g opacity=".7"><path d="M230.597 302.945l9.232 20.796a2.264 2.264 0 01-1.998 3.202l-27.287 1.074s10.765-21.443 11.07-21.105c.305.339 8.983-3.967 8.983-3.967z" fill="#4A97C9"/><path d="M161.595 309.216c13.825-5.173 59.007-21.224 76.049-27.278 2.248-.796 4.288 1.663 3.083 3.712l-10.149 17.381 9.236 20.703a2.244 2.244 0 01-.301 2.375c-.394.531-12.892-11.887-12.892-11.887s-4.94 24.614-7.263 36.262c-.555 2.867-3.931 4.153-6.327 2.365-11.974-9.031-41.953-31.657-52.151-39.395-1.414-1.181-1.113-3.557.715-4.238z" fill="#78C8FF"/><path d="M239.581 326.105c-.394.53-12.887-11.883-12.887-11.883l-45.425-1.075c-.275-.016-.344-.479-.021-.507l49.357-9.653 9.233 20.695c.37.894.233 1.806-.257 2.423z" fill="#5CA8DB"/></g><g opacity=".3"><path d="M704.544 591.568l-30.891 12.44c-2.233.911-2.825 3.693-1.196 5.376l27.319 28.731s10.728-33.35 10.063-33.304c-.665.046-5.295-13.243-5.295-13.243z" fill="#4A97C9"/><path d="M769.949 668.045c-9.104-19.403-39.731-81.916-51.284-105.496-1.526-3.107-6.165-2.597-7.007.768l-7.211 28.47-30.794 12.337a3.302 3.302 0 00-2.116 2.792c-.132.954 25.583.592 25.583.592s-20.033 30.774-29.53 45.322c-2.354 3.565-.155 8.327 4.168 8.878 21.706 2.655 76.067 9.286 94.6 11.499 2.681.192 4.797-2.6 3.591-5.162z" fill="#78C8FF"/><path d="M671.525 606.83c-.132.953 25.558.591 25.558.591l48.369 44.796c.302.262.848-.153.54-.509l-41.494-59.999-30.764 12.325c-1.299.562-2.089 1.655-2.209 2.796z" fill="#5CA8DB"/></g><path d="M238.999 111.592s.711.038 1.8.011" stroke="#363636" stroke-width=".75" stroke-linecap="round" stroke-linejoin="round"/><path d="M244.73 109.994c10.954-.487 35.453-3.708 43.858-23.66 10.968-25.959-13.522-31.138-23.735-12.724-10.212 18.414 18.027 30.373 39.459 22.101 21.432-8.272 67.716-37.446 85.399-7.446 17.578 30.057-53.183 44.67-38.269 73.374 14.913 28.704 84.085 55.528 60.46 80.381-23.625 24.852-76.927 14.601-76.025 27.123.7 10.673 12.629 10.216 19.244 13.762" stroke="#363636" stroke-width=".75" stroke-linecap="round" stroke-linejoin="round" stroke-dasharray="3 3"/><path d="M354.949 283.657c.505.422.846.794 1.246 1.273" stroke="#363636" stroke-width=".75" stroke-linecap="round" stroke-linejoin="round"/><defs><linearGradient id="paint0_linear" x1="441.306" y1="317.322" x2="579.486" y2="424.653" gradientUnits="userSpaceOnUse"><stop offset=".04" stop-color="#06BED8"/><stop offset="1" stop-color="#DEFA8E"/></linearGradient><linearGradient id="paint1_linear" x1="511.776" y1="82.422" x2="534.522" y2="79.107" gradientUnits="userSpaceOnUse"><stop offset=".04" stop-color="#06CFF1"/><stop offset="1" stop-color="#5B73C6"/></linearGradient><linearGradient id="paint2_linear" x1="505.976" y1="140.211" x2="546.367" y2="94.634" gradientUnits="userSpaceOnUse"><stop offset=".04" stop-color="#06CFF1"/><stop offset="1" stop-color="#5C73C6"/></linearGradient><linearGradient id="paint3_linear" x1="447.511" y1="298.157" x2="607.553" y2="138.206" gradientUnits="userSpaceOnUse"><stop offset=".04" stop-color="#06CFF1"/><stop offset="1" stop-color="#5B73C6"/></linearGradient><linearGradient id="paint4_linear" x1="526.807" y1="238.296" x2="528.23" y2="174.289" gradientUnits="userSpaceOnUse"><stop stop-color="#030D14"/><stop offset="1" stop-color="#0B2F45"/></linearGradient><linearGradient id="paint6_linear" x1="473.486" y1="205.812" x2="505.878" y2="205.812" gradientUnits="userSpaceOnUse"><stop stop-color="#030D14"/><stop offset="1" stop-color="#0B2F45"/></linearGradient><linearGradient id="paint8_linear" x1="546.06" y1="205.812" x2="578.451" y2="205.812" gradientUnits="userSpaceOnUse"><stop stop-color="#030D14"/><stop offset="1" stop-color="#0B2F45"/></linearGradient><linearGradient id="paint9_linear" x1="506.78" y1="54.941" x2="536.882" y2="50.553" gradientUnits="userSpaceOnUse"><stop offset=".04" stop-color="#06CFF1"/><stop offset="1" stop-color="#5C73C6"/></linearGradient><linearGradient id="paint10_linear" x1="526.256" y1="263.157" x2="572.594" y2="216.846" gradientUnits="userSpaceOnUse"><stop offset=".071" stop-color="#0DA9AB"/><stop offset="1" stop-color="#DEFA8E"/></linearGradient><linearGradient id="paint11_linear" x1="482.518" y1="403.773" x2="617.583" y2="255.075" gradientUnits="userSpaceOnUse"><stop offset=".04" stop-color="#06CFF1"/><stop offset=".041" stop-color="#06CFF1"/><stop offset=".416" stop-color="#37D9DB"/><stop offset="1" stop-color="#5B73C6"/></linearGradient><linearGradient id="paint12_linear" x1="476.016" y1="332.299" x2="549.853" y2="246.126" gradientUnits="userSpaceOnUse"><stop offset=".04" stop-color="#06CFF1"/><stop offset="1" stop-color="#DEFA8E"/></linearGradient><linearGradient id="paint13_linear" x1="634.563" y1="382.366" x2="542.657" y2="315.185" gradientUnits="userSpaceOnUse"><stop offset=".04" stop-color="#06CFF1"/><stop offset=".073" stop-color="#0FD1ED"/><stop offset=".895" stop-color="#539EE2"/><stop offset="1" stop-color="#3DA6D2"/></linearGradient><linearGradient id="paint14_linear" x1="553.603" y1="375.846" x2="618.727" y2="341.927" gradientUnits="userSpaceOnUse"><stop offset=".04" stop-color="#06BED8"/><stop offset="1" stop-color="#5977C8"/></linearGradient><radialGradient id="paint5_radial" cx="0" cy="0" r="1" gradientUnits="userSpaceOnUse" gradientTransform="matrix(26.5869 0 0 26.6019 489.681 205.812)"><stop offset=".13" stop-color="#3280FC"/><stop offset="1"/></radialGradient><radialGradient id="paint7_radial" cx="0" cy="0" r="1" gradientUnits="userSpaceOnUse" gradientTransform="matrix(26.5869 0 0 26.6019 562.255 205.812)"><stop offset=".13" stop-color="#3280FC"/><stop offset="1"/></radialGradient><radialGradient id="paint15_radial" cx="0" cy="0" r="1" gradientUnits="userSpaceOnUse" gradientTransform="matrix(75.945 0 0 31.1085 531.021 458.966)"><stop stop-color="#BCD7D6"/><stop offset="1" stop-color="#fff"/></radialGradient></defs></svg>