<svg xmlns="http://www.w3.org/2000/svg" width="627" height="495" viewBox="0 0 627 495" fill="none"><path d="M424.404 147.525L190.981 12.7771C190.341 12.3366 189.596 12.073 188.822 12.0128C188.047 11.9527 187.271 12.0982 186.57 12.4347L181.555 15.3552L184.496 16.5637L153.8 180.095C153.627 181.743 153.927 183.407 154.665 184.891C155.404 186.375 156.55 187.618 157.969 188.474L391.049 323.041L390.647 326.566L395.622 323.665C396.16 323.387 396.624 322.984 396.974 322.49C397.325 321.996 397.552 321.425 397.636 320.825L428.594 155.904C428.762 154.254 428.458 152.59 427.716 151.106C426.974 149.623 425.826 148.381 424.404 147.525Z" fill="url(#paint0_linear)"></path><path d="M386.94 329.204L375.158 335.045L152.108 206.279C150.492 205.544 148.725 205.199 146.951 205.272C145.177 205.346 143.446 205.835 141.896 206.702L12.3642 281.468L0.0979004 274.781L4.4888 288.88C4.79111 289.643 5.36509 290.268 6.10015 290.633L234.971 422.783C236.591 423.517 238.36 423.861 240.137 423.787C241.914 423.714 243.649 423.225 245.203 422.36L380.153 344.391C381.233 343.86 382.079 342.949 382.529 341.833L386.94 329.204Z" fill="url(#paint1_linear)"></path><path d="M424.404 147.525L190.981 12.7771C190.341 12.3366 189.596 12.073 188.822 12.0128C188.047 11.9527 187.271 12.0982 186.57 12.4347L181.555 15.3552L184.496 16.5637L153.8 180.095C153.627 181.743 153.927 183.407 154.665 184.891C155.404 186.375 156.55 187.618 157.969 188.474L275.194 256.15L427.325 150.386C426.593 149.213 425.592 148.233 424.404 147.525Z" fill="url(#paint2_linear)"></path><path d="M386.256 326.284L152.833 191.515C151.4 190.657 150.243 189.406 149.5 187.91C148.758 186.414 148.46 184.736 148.643 183.076L179.621 18.1751C180.165 15.1739 182.965 14.1467 185.845 15.7379L419.268 150.506C420.699 151.366 421.855 152.618 422.597 154.113C423.34 155.609 423.638 157.286 423.458 158.946L392.479 323.867C391.915 326.868 389.136 327.935 386.256 326.284Z" fill="url(#paint3_linear)"></path><path d="M385.249 320.221L155.633 187.688C155.128 187.384 154.722 186.941 154.461 186.413C154.201 185.885 154.097 185.293 154.162 184.707L184.597 22.6465C184.778 21.5992 185.765 21.2165 186.792 21.8006L416.408 154.333C416.912 154.638 417.319 155.08 417.58 155.609C417.84 156.137 417.944 156.729 417.878 157.314L387.444 319.395C387.243 320.422 386.276 320.805 385.249 320.221Z" fill="url(#paint4_linear)"></path><path d="M235.958 411.886L1.80998 276.715C-0.868872 275.164 -0.526472 272.465 2.55522 270.672L140.708 190.911C142.296 190.03 144.069 189.532 145.884 189.459C147.699 189.385 149.506 189.738 151.161 190.488L385.309 325.659C387.988 327.21 387.645 329.909 384.564 331.702L246.411 411.463C244.824 412.349 243.051 412.849 241.235 412.922C239.419 412.996 237.611 412.641 235.958 411.886Z" fill="url(#paint5_linear)"></path><path d="M235.958 411.886L1.80998 276.715C-0.868872 275.164 -0.526472 272.465 2.55522 270.672L140.708 190.911C142.296 190.03 144.069 189.532 145.884 189.459C147.699 189.385 149.506 189.738 151.161 190.488L385.309 325.659C387.988 327.21 387.645 329.909 384.564 331.702L246.411 411.463C244.824 412.349 243.051 412.849 241.235 412.922C239.419 412.996 237.611 412.641 235.958 411.886Z" fill="url(#paint6_linear)"></path><path d="M2.55521 273.069L140.708 193.308C142.295 192.422 144.068 191.922 145.884 191.849C147.7 191.775 149.508 192.13 151.161 192.885L385.309 328.056C385.929 328.385 386.445 328.881 386.799 329.486C386.975 329.136 387.075 328.753 387.095 328.362C387.114 327.971 387.051 327.58 386.911 327.214C386.771 326.848 386.556 326.516 386.28 326.238C386.004 325.96 385.674 325.742 385.309 325.599L151.161 190.488C149.506 189.738 147.699 189.385 145.884 189.459C144.069 189.532 142.296 190.03 140.708 190.911L2.55521 270.672C0.279189 272.002 -0.506325 273.814 0.319487 275.285C0.8446 274.353 1.61873 273.586 2.55521 273.069Z" fill="#A9EBFF"></path><path d="M266.211 178.604L277.369 119.488L267.178 117.575L251.608 199.975C250.825 204.139 249.151 208.084 246.7 211.54C244.249 214.996 241.079 217.88 237.408 219.995L160.728 264.307L165.905 273.291L234.951 233.43L273.22 253.37C273.22 253.37 296.423 232 296.544 231.517C296.665 231.033 301.358 196.087 301.358 196.087L266.211 178.604Z" fill="url(#paint7_linear)"></path><path d="M206.611 296.715L201.415 287.732L278.095 243.42C281.766 241.305 284.935 238.421 287.386 234.965C289.838 231.509 291.512 227.563 292.294 223.399L307.864 140.999L318.056 143.014L302.486 225.393C301.426 231.027 299.159 236.365 295.843 241.041C292.526 245.717 288.237 249.621 283.271 252.484L206.611 296.715Z" fill="white"></path><path d="M400.556 100.474L400.436 100.152L400.335 99.9103L400.234 99.6887C399.205 96.9786 397.325 94.6748 394.876 93.1225L394.232 92.7398L315.075 47.0785L236.018 1.41713L235.374 1.03443C234.406 0.410536 233.289 0.0555676 232.139 0.00600999C230.989 -0.0435477 229.846 0.214094 228.828 0.752444H228.667H228.526L218.072 6.79497L224.115 9.33282L203.248 120.112C202.752 123.107 203.144 126.181 204.376 128.955C204.4 129.039 204.434 129.12 204.476 129.196C204.469 129.27 204.469 129.344 204.476 129.418C205.506 132.128 207.386 134.432 209.834 135.984L367.504 227.065L366.054 234.014L375.943 228.274H376.084C377.148 227.653 378.055 226.796 378.736 225.769C379.417 224.743 379.853 223.574 380.012 222.352L401.382 109.014C401.911 106.146 401.625 103.188 400.556 100.474Z" fill="white"></path><path d="M359.145 234.054L199.723 141.986C194.909 139.207 191.988 131.734 193.197 125.309L214.366 13.5827C215.574 7.13738 220.408 4.19669 225.303 6.97625L384.705 99.0442C389.539 101.824 392.459 109.296 391.251 115.722L370.062 227.448C368.853 233.893 363.959 236.814 359.145 234.054Z" fill="url(#paint8_linear)"></path><path d="M383.96 98.6615L305.004 53.0002L280.129 184.445L358.5 233.793C363.677 236.774 368.793 234.357 369.921 228.374L391.291 115.017C391.773 111.874 391.337 108.659 390.037 105.758C388.736 102.857 386.626 100.393 383.96 98.6615Z" fill="url(#paint9_linear)"></path><path d="M225.847 7.35848L305.004 52.9997L280.39 183.518L200.488 142.369C197.832 140.651 195.726 138.205 194.422 135.323C193.118 132.44 192.672 129.243 193.136 126.114L214.366 12.7565C215.554 6.77435 220.67 4.35736 225.847 7.35848Z" fill="url(#paint10_linear)"></path><path d="M194.043 134.635C195.261 137.834 197.488 140.549 200.388 142.369L358.5 233.692C359.632 234.446 360.947 234.88 362.305 234.947C363.663 235.015 365.014 234.713 366.215 234.075L295.376 103.556L194.043 134.635Z" fill="url(#paint11_linear)"></path><path d="M390.284 106.396C389.08 103.195 386.858 100.477 383.959 98.6615L225.847 7.35893C224.719 6.59752 223.404 6.15771 222.045 6.08673C220.686 6.01576 219.334 6.31632 218.132 6.9561L288.89 137.475L390.284 106.396Z" fill="url(#paint12_linear)"></path><path d="M199.381 350.172L121.855 305.417L199.381 260.662L276.906 305.417L199.381 350.172Z" fill="url(#paint13_linear)"></path><path d="M199.381 329.285L121.855 284.53V250.148L199.381 294.903V329.285Z" fill="url(#paint14_linear)"></path><path d="M171.122 295.809C171.203 297.347 171.647 298.844 172.417 300.177C173.187 301.511 174.262 302.644 175.553 303.483C177.99 304.893 179.984 303.745 179.984 300.925C179.898 299.388 179.452 297.893 178.682 296.56C177.913 295.227 176.841 294.094 175.553 293.251C173.095 291.841 171.122 292.989 171.122 295.809Z" fill="white"></path><path d="M154.968 286.483C155.054 288.023 155.5 289.521 156.27 290.857C157.039 292.193 158.111 293.33 159.399 294.178C161.857 295.588 163.83 294.439 163.83 291.62C163.749 290.079 163.305 288.579 162.535 287.242C161.765 285.906 160.691 284.769 159.399 283.925C156.962 282.516 154.968 283.664 154.968 286.483Z" fill="white"></path><path d="M138.834 277.097C138.916 278.635 139.36 280.132 140.13 281.466C140.9 282.799 141.974 283.932 143.266 284.771C145.703 286.181 147.697 285.033 147.697 282.213C147.611 280.677 147.165 279.182 146.395 277.849C145.625 276.516 144.553 275.382 143.266 274.539C140.808 273.21 138.834 274.358 138.834 277.097Z" fill="white"></path><path d="M173.357 292.687C173.126 293.235 173.01 293.825 173.015 294.419C173.099 295.959 173.546 297.457 174.319 298.791C175.093 300.125 176.171 301.256 177.466 302.093C178.116 302.503 178.874 302.707 179.642 302.677C178.977 304.148 177.406 304.551 175.613 303.483C174.322 302.644 173.248 301.511 172.477 300.177C171.707 298.844 171.263 297.347 171.182 295.809C171.122 293.916 172.068 292.788 173.357 292.687Z" fill="#A9EBFF"></path><path d="M157.224 283.361C156.985 283.914 156.868 284.512 156.881 285.114C156.968 286.651 157.413 288.146 158.183 289.479C158.953 290.811 160.025 291.945 161.313 292.788C161.968 293.199 162.735 293.396 163.508 293.352C162.843 294.842 161.252 295.245 159.48 294.178C158.191 293.33 157.119 292.193 156.35 290.857C155.58 289.521 155.135 288.023 155.048 286.483C154.968 284.59 155.955 283.482 157.224 283.361Z" fill="#A9EBFF"></path><path d="M141.069 274.035C140.846 274.592 140.737 275.187 140.746 275.787C140.828 277.325 141.272 278.822 142.042 280.155C142.812 281.489 143.886 282.622 145.178 283.461C145.826 283.872 146.587 284.069 147.353 284.025C146.708 285.515 145.117 285.918 143.325 284.851C142.033 284.011 140.959 282.879 140.189 281.545C139.419 280.211 138.975 278.715 138.893 277.177C138.833 275.263 139.84 274.155 141.069 274.035Z" fill="#A9EBFF"></path><path d="M199.381 294.903L121.855 250.148L199.381 205.373L276.906 250.148L199.381 294.903Z" fill="url(#paint15_linear)"></path><path d="M199.381 293.171L123.345 249.282L121.855 250.148L199.381 294.903L276.906 250.148L275.416 249.282L199.381 293.171Z" fill="#A9EBFF"></path><path d="M199.381 222.513L145.058 253.874L199.381 285.235L253.703 253.874L199.381 222.513Z" fill="white"></path><path d="M199.381 222.513L253.703 253.874L260.168 250.148L199.381 215.041L138.593 250.148L145.038 253.874L199.381 222.513Z" fill="#2573BA"></path><path d="M276.906 284.53L199.38 329.285V294.903L276.906 250.148V284.53Z" fill="url(#paint16_linear)"></path><path d="M199.381 272.082L121.855 227.327V213.308L199.381 258.063V272.082Z" fill="url(#paint17_linear)"></path><path d="M199.381 258.063L121.855 213.308L199.381 168.533L276.906 213.308L199.381 258.063Z" fill="url(#paint18_linear)"></path><path d="M199.381 256.331L123.345 212.442L121.855 213.308L199.381 258.063L276.906 213.308L275.416 212.442L199.381 256.331Z" fill="#A9EBFF"></path><path d="M276.906 227.327L199.38 272.082V258.063L276.906 213.308V227.327Z" fill="url(#paint19_linear)"></path><path opacity="0.5" d="M121.855 284.53V305.417L199.381 350.172V329.285L121.855 284.53Z" fill="white"></path><path opacity="0.5" d="M276.906 284.53V305.417L199.38 350.172V329.285L276.906 284.53Z" fill="white"></path><path opacity="0.5" d="M276.906 284.53V305.417L199.38 350.172V329.285L276.906 284.53Z" fill="white"></path><path d="M221.677 306.263L254.649 287.168C256.254 286.018 257.567 284.508 258.483 282.759C259.4 281.01 259.894 279.071 259.927 277.097C259.927 273.21 257.57 271.417 254.649 273.069L221.718 292.083C220.111 293.231 218.796 294.74 217.88 296.49C216.963 298.239 216.47 300.179 216.441 302.154C216.38 306.162 218.757 307.934 221.677 306.263Z" fill="white"></path><path d="M248.99 283.664C250.594 282.513 251.907 281.003 252.824 279.254C253.74 277.506 254.234 275.567 254.267 273.593V273.391L254.609 273.19C257.53 271.498 259.886 273.291 259.886 277.218C259.854 279.192 259.359 281.131 258.443 282.88C257.527 284.629 256.214 286.139 254.609 287.289L221.677 306.303C218.817 307.955 216.481 306.303 216.4 302.516L248.99 283.664Z" fill="#A9EBFF"></path><path d="M259.463 332.064C259.486 330.366 259.908 328.697 260.695 327.193C261.482 325.688 262.613 324.39 263.995 323.403L292.194 307.088C292.637 306.767 293.164 306.581 293.711 306.553C294.257 306.524 294.801 306.654 295.275 306.927L326.495 325.055L292.133 353.636L260.974 335.629C260.443 335.21 260.026 334.663 259.762 334.04C259.498 333.417 259.395 332.738 259.463 332.064Z" fill="url(#paint20_linear)"></path><path d="M295.114 353.475L323.313 337.16C324.69 336.169 325.817 334.87 326.604 333.366C327.391 331.863 327.816 330.196 327.845 328.499C327.845 325.156 325.83 323.625 323.313 325.075L295.114 341.39C293.735 342.38 292.607 343.679 291.82 345.183C291.034 346.686 290.609 348.354 290.582 350.051C290.582 353.394 292.617 354.925 295.114 353.475Z" fill="url(#paint21_linear)"></path><path d="M319.949 383.003L366.033 356.395V335.952L319.949 362.559V383.003Z" fill="url(#paint22_linear)"></path><path d="M319.949 362.559L366.033 335.952L319.949 309.344L273.845 335.952L319.949 362.559Z" fill="url(#paint23_linear)"></path><path d="M273.845 356.395L319.949 383.003V362.559L273.845 335.952V356.395Z" fill="url(#paint24_linear)"></path><path d="M319.949 361.532L365.147 335.428L366.033 335.952L319.949 362.559L273.845 335.952L274.731 335.428L319.949 361.532Z" fill="#A9EBFF"></path><path d="M328.832 366.184L355.58 350.575L378.098 368.622L380.012 384.191V398.391L485.534 461.938L507.791 475.091L504.407 485.262L488.918 491.406L467.528 485.041L413.387 451.162L366.033 424.877L352.78 414.706L351.934 393.094L350.242 379.941L328.832 366.184Z" fill="white"></path><path d="M487.79 494.991C492.29 494.975 496.706 493.78 500.601 491.527C504.505 489.299 507.747 486.073 509.994 482.18C512.242 478.286 513.414 473.866 513.391 469.371V211.173C513.324 210.292 512.926 209.469 512.278 208.869C511.63 208.268 510.78 207.934 509.896 207.934C509.012 207.934 508.161 208.268 507.513 208.869C506.865 209.469 506.468 210.292 506.401 211.173V469.35C506.401 472.617 505.54 475.826 503.906 478.654C502.273 481.483 499.923 483.832 497.094 485.465C494.265 487.098 491.056 487.957 487.789 487.957C484.523 487.957 481.314 487.097 478.485 485.464L362.408 418.352C360.403 417.194 358.737 415.529 357.577 413.525C356.418 411.521 355.805 409.247 355.801 406.931V390.918C355.808 387.376 354.881 383.895 353.113 380.825C351.345 377.756 348.798 375.207 345.731 373.435L332.719 365.923C331.926 365.564 331.029 365.514 330.201 365.78C329.373 366.047 328.674 366.612 328.24 367.365C327.805 368.119 327.666 369.007 327.85 369.857C328.034 370.707 328.527 371.458 329.234 371.965L342.246 379.478C344.248 380.638 345.909 382.304 347.065 384.308C348.221 386.312 348.831 388.585 348.832 390.898V406.911C348.838 410.451 349.77 413.928 351.537 416.995C353.304 420.063 355.844 422.614 358.903 424.394L475 491.506C478.886 493.766 483.296 494.968 487.79 494.991Z" fill="white"></path><path d="M354.271 351.843C354.502 351.445 354.809 351.096 355.176 350.817C355.542 350.538 355.959 350.333 356.405 350.215C356.85 350.098 357.314 350.069 357.77 350.13C358.227 350.192 358.666 350.343 359.064 350.575L372.076 358.087C375.144 359.859 377.69 362.408 379.458 365.477C381.226 368.547 382.154 372.028 382.147 375.571V391.583C382.151 393.896 382.761 396.168 383.917 398.172C385.072 400.176 386.733 401.842 388.733 403.004L509.846 472.996C512.168 474.354 514.76 475.186 517.439 475.433C517.197 477.75 517.278 480.106 517.097 482.443C513.305 482.126 509.631 480.97 506.341 479.059L385.228 409.066C382.169 407.286 379.629 404.735 377.862 401.667C376.095 398.6 375.163 395.123 375.158 391.583V375.571C375.16 373.256 374.552 370.982 373.396 368.977C372.24 366.972 370.576 365.307 368.571 364.15L355.56 356.637C354.756 356.17 354.17 355.404 353.928 354.506C353.687 353.608 353.81 352.651 354.271 351.843Z" fill="white"></path><path d="M497.861 492.896L508.496 479.582L510.007 463.852V425.703V225.333L537.863 230.066V217.115C537.826 216.634 537.89 216.15 538.049 215.695C538.208 215.239 538.459 214.821 538.787 214.467C539.115 214.113 539.513 213.831 539.955 213.638C540.397 213.445 540.875 213.345 541.357 213.345C541.84 213.345 542.317 213.445 542.76 213.638C543.202 213.831 543.6 214.113 543.928 214.467C544.256 214.821 544.507 215.239 544.666 215.695C544.825 216.15 544.889 216.634 544.852 217.115V456.802C544.879 461.298 543.709 465.72 541.461 469.614C539.213 473.508 535.969 476.733 532.062 478.958C530.638 479.768 529.141 480.442 527.591 480.972L497.861 492.896Z" fill="url(#paint25_linear)"></path><path d="M487.79 494.991C492.29 494.975 496.706 493.78 500.601 491.527C504.505 489.299 507.747 486.073 509.994 482.18C512.242 478.286 513.414 473.866 513.391 469.371V211.173C513.324 210.292 512.926 209.469 512.278 208.869C511.63 208.268 510.78 207.934 509.896 207.934C509.012 207.934 508.161 208.268 507.513 208.869C506.865 209.469 506.468 210.292 506.401 211.173V469.35C506.401 472.617 505.54 475.826 503.906 478.654C502.273 481.483 499.923 483.832 497.094 485.465C494.265 487.098 491.056 487.957 487.789 487.957C484.523 487.957 481.314 487.097 478.485 485.464L362.408 418.352C360.403 417.194 358.737 415.529 357.577 413.525C356.418 411.521 355.805 409.247 355.801 406.931V390.918C355.808 387.376 354.881 383.895 353.113 380.825C351.345 377.756 348.798 375.207 345.731 373.435L332.719 365.923C331.926 365.564 331.029 365.514 330.201 365.78C329.373 366.047 328.674 366.612 328.24 367.365C327.805 368.119 327.666 369.007 327.85 369.857C328.034 370.707 328.527 371.458 329.234 371.965L342.246 379.478C344.248 380.638 345.909 382.304 347.065 384.308C348.221 386.312 348.831 388.585 348.832 390.898V406.911C348.838 410.451 349.77 413.928 351.537 416.995C353.304 420.063 355.844 422.614 358.903 424.394L475 491.506C478.886 493.766 483.296 494.968 487.79 494.991Z" fill="url(#paint26_linear)"></path><path opacity="0.2" d="M310.221 373.194L314.934 375.913V366.466L310.221 363.747V373.194Z" fill="white"></path><path opacity="0.2" d="M302.385 368.682L307.079 371.401V361.934L302.385 359.235V368.682Z" fill="white"></path><path opacity="0.2" d="M294.55 364.15L299.243 366.869V357.423L294.55 354.704V364.15Z" fill="white"></path><path d="M286.715 359.638L291.408 362.337V352.891L286.715 350.172V359.638Z" fill="white"></path><path d="M278.88 355.106L283.573 357.826V348.379L278.88 345.66V355.106Z" fill="white"></path><path d="M522.313 234.075H520.299V289.726H522.313V234.075Z" fill="#59BDEF"></path><path d="M530.511 234.075H526.986V404.998H530.511V234.075Z" fill="#59BDEF"></path><path d="M538.225 229.019H535.869V305.618H538.225V229.019Z" fill="#59BDEF"></path><path d="M538.668 310.714H535.466V450.981H538.668V310.714Z" fill="#59BDEF"></path><path d="M529.484 409.509H528.034V438.695H529.484V409.509Z" fill="#59BDEF"></path><path d="M522.011 297.602H520.601V324.914H522.011V297.602Z" fill="#59BDEF"></path><path d="M522.555 332.004H520.078V416.277H522.555V332.004Z" fill="#59BDEF"></path><path d="M617.624 124.242L579.354 102.086C573.654 98.6817 565.739 99.1047 556.977 104.1C554.023 105.833 551.25 107.857 548.699 110.142L533.31 101.26C524.871 95.318 512.625 95.5799 499.069 103.435C481.848 113.385 466.843 132.943 458.887 153.669C455.812 153.872 452.833 154.819 450.205 156.428C438.966 162.914 429.862 178.705 429.862 191.676C429.862 191.958 429.862 192.22 429.862 192.482C426.144 192.839 422.555 194.038 419.368 195.987C405.007 204.285 393.345 224.487 393.345 241.084C393.345 249.322 396.205 255.183 400.858 257.862H400.979L438.664 279.736L446.902 240.137L556.997 176.59C571.096 168.533 582.96 150.909 586.968 133.869L617.624 124.242Z" fill="url(#paint27_linear)"></path><path d="M394.433 242.051C394.433 225.434 406.095 205.252 420.477 196.953C423.656 195.005 427.238 193.806 430.95 193.449C430.95 193.167 430.95 192.925 430.95 192.643C430.95 179.652 440.074 163.86 451.314 157.375C453.931 155.763 456.906 154.822 459.975 154.635C467.931 133.91 482.936 114.352 500.157 104.402C513.793 96.5466 526.019 96.3452 534.398 102.227L549.787 111.109C552.322 108.814 555.09 106.789 558.045 105.067C566.806 100.011 574.742 99.5881 580.442 103.052L617.261 124.443H617.584L579.314 102.287C573.614 98.8831 565.699 99.3061 556.937 104.301C553.983 106.034 551.21 108.058 548.659 110.344L533.27 101.461C524.831 95.5194 512.585 95.7813 499.029 103.637C481.808 113.587 466.803 133.144 458.847 153.87C455.772 154.074 452.793 155.021 450.165 156.63C438.926 163.115 429.822 178.906 429.822 191.878C429.822 192.16 429.822 192.421 429.822 192.683C426.104 193.041 422.515 194.239 419.328 196.188C404.967 204.486 393.305 224.689 393.305 241.285C393.305 248.758 395.682 254.196 399.59 257.197C396.407 253.914 394.433 248.899 394.433 242.051Z" fill="white"></path><path d="M594.864 126.034C589.678 129.136 585.031 133.061 581.107 137.656C575.326 119.126 557.722 113.365 536.896 125.39C519.675 135.34 504.669 154.897 496.713 175.623C493.645 175.809 490.67 176.75 488.052 178.362C476.813 184.868 467.689 200.639 467.689 213.631C467.689 213.913 467.689 214.154 467.689 214.436C463.977 214.794 460.395 215.993 457.215 217.941C442.834 226.239 431.172 246.442 431.172 263.038C431.172 279.635 442.834 286.363 457.215 278.064L594.824 198.605C612.186 188.534 626.245 164.223 626.245 144.222C626.245 124.221 612.226 116.084 594.864 126.034Z" fill="url(#paint28_linear)"></path><path style="mix-blend-mode:lighten" opacity="0.7" d="M594.864 126.034C589.678 129.136 585.031 133.061 581.107 137.656C575.326 119.126 557.722 113.365 536.896 125.39C519.675 135.34 504.669 154.897 496.713 175.623C493.645 175.809 490.67 176.75 488.052 178.362C476.813 184.868 467.689 200.639 467.689 213.631C467.689 213.913 467.689 214.154 467.689 214.436C463.977 214.794 460.395 215.993 457.215 217.941C442.834 226.239 431.172 246.442 431.172 263.038C431.172 279.635 442.834 286.363 457.215 278.064L594.824 198.605C612.186 188.534 626.245 164.223 626.245 144.222C626.245 124.221 612.226 116.084 594.864 126.034Z" fill="url(#paint29_linear)"></path><path d="M594.864 126.034C589.678 129.136 585.031 133.061 581.107 137.656C575.326 119.126 557.722 113.365 536.896 125.39C519.675 135.34 504.669 154.897 496.713 175.623C493.645 175.809 490.67 176.75 488.052 178.362C476.813 184.868 467.689 200.639 467.689 213.631C467.689 213.913 467.689 214.154 467.689 214.436C463.977 214.794 460.395 215.993 457.215 217.941C442.834 226.239 431.172 246.442 431.172 263.038C431.172 279.635 442.834 286.363 457.215 278.064L594.824 198.605C612.186 188.534 626.245 164.223 626.245 144.222C626.245 124.221 612.226 116.084 594.864 126.034Z" fill="white"></path><path style="mix-blend-mode:lighten" opacity="0.7" d="M582.759 139.811C586.695 135.22 591.347 131.296 596.536 128.189C607.19 122.147 616.577 122.751 622.277 128.834C616.879 120.878 606.647 119.307 594.864 126.095C589.949 129.033 585.524 132.724 581.751 137.032C582.114 137.918 582.456 138.844 582.759 139.811Z" fill="url(#paint30_linear)"></path><defs><linearGradient id="paint0_linear" x1="324.562" y1="-3.09463" x2="281.78" y2="206.42" gradientUnits="userSpaceOnUse"><stop stop-color="#2573BA"></stop><stop offset="1" stop-color="#0063AD"></stop></linearGradient><linearGradient id="paint1_linear" x1="9.80623" y1="314.48" x2="302.103" y2="314.48" gradientUnits="userSpaceOnUse"><stop stop-color="#3A9BD5"></stop><stop offset="0.31" stop-color="#3A9BD5"></stop><stop offset="0.36" stop-color="#3A9BD5"></stop><stop offset="0.6" stop-color="#3999D4"></stop><stop offset="0.69" stop-color="#3592CF"></stop><stop offset="0.75" stop-color="#2F86C7"></stop><stop offset="0.8" stop-color="#2676BC"></stop><stop offset="0.81" stop-color="#2573BA"></stop></linearGradient><linearGradient id="paint2_linear" x1="366.436" y1="218.042" x2="141.735" y2="68.6704" gradientUnits="userSpaceOnUse"><stop stop-color="#59BDEF"></stop><stop offset="1" stop-color="#7BDAFF"></stop></linearGradient><linearGradient id="paint3_linear" x1="147.596" y1="83.4545" x2="423.337" y2="257.822" gradientUnits="userSpaceOnUse"><stop stop-color="#3A9BD5"></stop><stop offset="1" stop-color="#2573BA"></stop></linearGradient><linearGradient id="paint4_linear" x1="-1.87711e+06" y1="64398.4" x2="-1.91164e+06" y2="64398.4" gradientUnits="userSpaceOnUse"><stop stop-color="#59BDEF"></stop><stop offset="1" stop-color="#7BDAFF"></stop></linearGradient><linearGradient id="paint5_linear" x1="-3.7741e+06" y1="75824.8" x2="-3.78407e+06" y2="43328.7" gradientUnits="userSpaceOnUse"><stop stop-color="#59BDEF"></stop><stop offset="1" stop-color="#7BDAFF"></stop></linearGradient><linearGradient id="paint6_linear" x1="-3.7741e+06" y1="75824.8" x2="-3.78407e+06" y2="43328.7" gradientUnits="userSpaceOnUse"><stop stop-color="#59BDEF"></stop><stop offset="1" stop-color="#7BDAFF"></stop></linearGradient><linearGradient id="paint7_linear" x1="218.012" y1="271.619" x2="275.315" y2="143.255" gradientUnits="userSpaceOnUse"><stop stop-color="#2573BA"></stop><stop offset="0.21" stop-color="#3F98D5"></stop><stop offset="0.4" stop-color="#52B3E8"></stop><stop offset="0.51" stop-color="#59BDEF"></stop><stop offset="0.64" stop-color="#3F98D5"></stop><stop offset="0.8" stop-color="#2573BA"></stop></linearGradient><linearGradient id="paint8_linear" x1="202.78" y1="82.4269" x2="392.03" y2="118.821" gradientUnits="userSpaceOnUse"><stop stop-color="#7BDAFF"></stop><stop offset="1" stop-color="#59BDEF"></stop></linearGradient><linearGradient id="paint9_linear" x1="396.566" y1="333.203" x2="301.141" y2="152.398" gradientUnits="userSpaceOnUse"><stop offset="0.77" stop-color="#59BDEF"></stop><stop offset="0.85" stop-color="#55B8EB"></stop><stop offset="0.93" stop-color="#49ABE1"></stop><stop offset="1" stop-color="#3A9BD5"></stop></linearGradient><linearGradient id="paint10_linear" x1="-398748" y1="439633" x2="-389349" y2="437304" gradientUnits="userSpaceOnUse"><stop offset="0.77" stop-color="#59BDEF"></stop><stop offset="0.85" stop-color="#55B8EB"></stop><stop offset="0.93" stop-color="#49ABE1"></stop><stop offset="1" stop-color="#3A9BD5"></stop></linearGradient><linearGradient id="paint11_linear" x1="252.409" y1="334.605" x2="347.882" y2="169.118" gradientUnits="userSpaceOnUse"><stop offset="0.77" stop-color="#3A9BD5"></stop><stop offset="0.84" stop-color="#3896D2"></stop><stop offset="0.92" stop-color="#3189C9"></stop><stop offset="1" stop-color="#2573BA"></stop></linearGradient><linearGradient id="paint12_linear" x1="-1.86925e+06" y1="420008" x2="-1.85487e+06" y2="429998" gradientUnits="userSpaceOnUse"><stop stop-color="#7BDAFF"></stop><stop offset="1" stop-color="#59BDEF"></stop></linearGradient><linearGradient id="paint13_linear" x1="-1.50023e+06" y1="24397.9" x2="-1.4938e+06" y2="29179" gradientUnits="userSpaceOnUse"><stop stop-color="#3A9BD5"></stop><stop offset="1" stop-color="#2573BA"></stop></linearGradient><linearGradient id="paint14_linear" x1="-740990" y1="20719.7" x2="-737197" y2="23281.2" gradientUnits="userSpaceOnUse"><stop stop-color="#3A9BD5"></stop><stop offset="1" stop-color="#2573BA"></stop></linearGradient><linearGradient id="paint15_linear" x1="-1.50023e+06" y1="21891.3" x2="-1.4938e+06" y2="26672.1" gradientUnits="userSpaceOnUse"><stop stop-color="#7BDAFF"></stop><stop offset="1" stop-color="#59BDEF"></stop></linearGradient><linearGradient id="paint16_linear" x1="-738048" y1="21377.4" x2="-734038" y2="22561.6" gradientUnits="userSpaceOnUse"><stop stop-color="#2573BA"></stop><stop offset="1" stop-color="#0063AD"></stop></linearGradient><linearGradient id="paint17_linear" x1="-740804" y1="14140.9" x2="-738101" y2="16598.4" gradientUnits="userSpaceOnUse"><stop stop-color="#3A9BD5"></stop><stop offset="1" stop-color="#2573BA"></stop></linearGradient><linearGradient id="paint18_linear" x1="-1.50023e+06" y1="20217" x2="-1.4938e+06" y2="24997.8" gradientUnits="userSpaceOnUse"><stop stop-color="#7BDAFF"></stop><stop offset="1" stop-color="#59BDEF"></stop></linearGradient><linearGradient id="paint19_linear" x1="-737894" y1="14567.6" x2="-734440" y2="15941.2" gradientUnits="userSpaceOnUse"><stop stop-color="#2573BA"></stop><stop offset="1" stop-color="#0063AD"></stop></linearGradient><linearGradient id="paint20_linear" x1="309.556" y1="317.159" x2="272.757" y2="342.155" gradientUnits="userSpaceOnUse"><stop stop-color="#3A9BD5"></stop><stop offset="0.24" stop-color="#3596D1"></stop><stop offset="0.54" stop-color="#2587C7"></stop><stop offset="0.87" stop-color="#0C6FB5"></stop><stop offset="1" stop-color="#0063AD"></stop></linearGradient><linearGradient id="paint21_linear" x1="55404" y1="9455.16" x2="54802.8" y2="10092.1" gradientUnits="userSpaceOnUse"><stop stop-color="#2573BA"></stop><stop offset="1" stop-color="#0063AD"></stop></linearGradient><linearGradient id="paint22_linear" x1="68563.8" y1="14433.4" x2="67223.1" y2="15339" gradientUnits="userSpaceOnUse"><stop stop-color="#3A9BD5"></stop><stop offset="1" stop-color="#2573BA"></stop></linearGradient><linearGradient id="paint23_linear" x1="139837" y1="15733.6" x2="137566" y2="17423.7" gradientUnits="userSpaceOnUse"><stop stop-color="#7BDAFF"></stop><stop offset="1" stop-color="#59BDEF"></stop></linearGradient><linearGradient id="paint24_linear" x1="67628.5" y1="14666.3" x2="66210.7" y2="15085.1" gradientUnits="userSpaceOnUse"><stop stop-color="#2573BA"></stop><stop offset="1" stop-color="#0063AD"></stop></linearGradient><linearGradient id="paint25_linear" x1="74465.3" y1="85702.9" x2="72637.9" y2="85702.9" gradientUnits="userSpaceOnUse"><stop stop-color="#3A9BD5"></stop><stop offset="1" stop-color="#2573BA"></stop></linearGradient><linearGradient id="paint26_linear" x1="299491" y1="87720" x2="282356" y2="87720" gradientUnits="userSpaceOnUse"><stop stop-color="#7BDAFF"></stop><stop offset="1" stop-color="#59BDEF"></stop></linearGradient><linearGradient id="paint27_linear" x1="72362.1" y1="41005.6" x2="97328.7" y2="41005.6" gradientUnits="userSpaceOnUse"><stop stop-color="#59BDEF"></stop><stop offset="1" stop-color="#7BDAFF"></stop></linearGradient><linearGradient id="paint28_linear" x1="433.077" y1="240.071" x2="629.058" y2="240.071" gradientUnits="userSpaceOnUse"><stop stop-color="#2B237C"></stop><stop offset="1" stop-color="#180D5B"></stop></linearGradient><linearGradient id="paint29_linear" x1="705.652" y1="292.534" x2="460.56" y2="179.96" gradientUnits="userSpaceOnUse"><stop stop-color="#180D5B"></stop><stop offset="0.09" stop-color="#1A1660"></stop><stop offset="0.25" stop-color="#1E2D6E"></stop><stop offset="0.44" stop-color="#255385"></stop><stop offset="0.66" stop-color="#2F87A5"></stop><stop offset="0.9" stop-color="#3CCACE"></stop><stop offset="1" stop-color="#42E8E0"></stop></linearGradient><linearGradient id="paint30_linear" x1="18352.5" y1="3869.44" x2="18052.8" y2="3312.66" gradientUnits="userSpaceOnUse"><stop stop-color="#180D5B"></stop><stop offset="0.09" stop-color="#1A1660"></stop><stop offset="0.25" stop-color="#1E2D6E"></stop><stop offset="0.44" stop-color="#255385"></stop><stop offset="0.66" stop-color="#2F87A5"></stop><stop offset="0.9" stop-color="#3CCACE"></stop><stop offset="1" stop-color="#42E8E0"></stop></linearGradient></defs></svg>