<svg xmlns="http://www.w3.org/2000/svg" viewBox="0 0 969 780" version="1" width="969px" height="780px"><path d="M349 434s-150 36-232-174c0 0 223-10 232 174z" fill="#24cf90"/><path d="M391 484S207 601 0 358c0 0 293-116 391 126z" fill="#27e09c"/><path d="M332 461L56 378m68 21l-50 19m114-2l-66 36M97 348l27 51m33-53l31 70m38-50l31 69m-6 4l-66 36" stroke-miterlimit="10" fill="none" stroke="#d6dbff" stroke-width="7" stroke-linecap="round" stroke-linejoin="round"/><path d="M420 354s22-80 1-123 13-114-24-158-33-73-33-73-23 103-4 152c19 50 20 140 29 163s18 75 18 75z" fill="#24cf90"/><path d="M409 311s-5-79-21-151c-9-41-27-119-25-145" stroke-miterlimit="10" fill="none" stroke="#f0f0f0" stroke-width="4" stroke-linecap="round" stroke-linejoin="round"/><path d="M420 407s-22-148-62-191c-41-43-64-8-64-8s20 6 35 42c14 36 28 56 38 68s24 77 24 77z" fill="#64deb1"/><path d="M392 328s-28-79-44-90-31-34-45-32" stroke-miterlimit="10" fill="none" stroke="#f0f0f0" stroke-width="4" stroke-linecap="round" stroke-linejoin="round"/><path d="M744 390s-40-80-2-122-22-113 43-156c66-44 59-72 59-72s41 102 7 151c-35 48-36 137-52 160-15 23-32 74-32 74z" fill="#24cf90"/><path d="M763 347s10-78 38-149c16-41 49-117 45-144" stroke-miterlimit="10" fill="none" stroke="#f0f0f0" stroke-width="4" stroke-linecap="round" stroke-linejoin="round"/><path d="M744 442s39-146 111-189c73-42 114-7 114-7s-36 5-62 41c-26 35-51 55-69 67s-42 76-42 76z" fill="#64deb1"/><path d="M794 364s50-78 79-89c28-10 56-33 80-31" stroke-miterlimit="10" fill="none" stroke="#f0f0f0" stroke-width="4" stroke-linecap="round" stroke-linejoin="round"/><path d="M554 459L331 331l222-128 225 128z" fill="#e9f5ff"/><path d="M554 459l1 173 223-128V331z" fill="#a8c4e5"/><path d="M332 331v172l223 129V459z" fill="#e0ebf5"/><path d="M249 633c-11 7-30 7-41 0-11-6-11-17 0-23s29-6 41 0c11 7 11 17 0 23z" fill="#dbefff"/><path d="M246 623l-11-3-4 2c-2 3-2 4-1 6 0 2 4 3 6 3h9c6 0 7-2 7-4 1-2-2-3-6-4zm-25-15l-12 2-2 4c0 3 0 5 2 6h6l8-5c6-3 5-5 5-7-1-2-4-2-7 0z" fill="#894e4e"/><path d="M230 454c4 4 5-1 5-1v-1c-5-6-8-6-8-6s-1 5 3 8zm-2-7l6 5v1s-1 3-4 1-2-7-2-7z" fill="#513554"/><path d="M237 454l-3-1v-2l3 2zm-10-7l-1-1h1v1s0 1 0 0zm17 11l-1-1h1l1 1z" fill="#513554"/><path d="M244 457s-3-4-8-5v2s0 4 4 7c5 3 4-4 4-4zm-4 3c-3-2-3-5-3-5v-1c4 0 6 3 6 3s0 5-3 3z" fill="#1737a2"/><path d="M237 456v-1h2l-1 1z" fill="#2c4482"/><path d="M228 449l1-1v1l-1 1z" fill="#fcfeff"/><path d="M220 473l3-12 7 5-2 10c0 2-8 1-8-3z" fill="#ffaa82"/><path d="M227 443s-6-6-8 6c-2 8 2 17 9 21 4 3 10 1 10-3 2-6 3-12 2-18 1-5-3-3-9-5z" fill="#ffaa82"/><path d="M219 466s-8-4-5-16c3-13 14-10 21-10 3 1 5 1 7 4 3 2-1 7-4 7-2 0-2 4-2 6l-4 5c-1 3-5 6-7 6-4 0-6-2-6-2z" fill="#492817"/><path d="M244 459l-11-1h-1l1-1h11l1 1z" fill="#1737a2"/><path d="M234 460c0 2-1 4-3 4l-2-4c0-2 1-4 3-4z" fill="#ffaa82"/><path d="M260 502c-2-1-2-3-2-4l2-7c1-2 3-3 4-2 2 0 3 2 2 4l-2 7z" fill="#edb2a1"/><path d="M210 489c4 7 9 12 16 15 10 3 20-1 27-7 4-2 0-8-3-6-6 5-14 9-22 6-6-2-9-6-12-11-2-4-8-1-6 3z" fill="#ffaa82"/><path d="M226 549c5 13 5 28 5 42l-2 31c0 7 11 7 10 0l2-32c1-15 0-30-5-44-2-6-12-4-10 3zm-21-12l4 27 1 15c-2 11-3 21-3 32 0 7 10 7 10 0 0-11 2-22 3-32v-16l-5-29c-2-6-12-4-10 3z" fill="#ceab8b"/><path d="M213 551l-2-3c3 1 18 11 21 11 4 0 1-3 4-6 3-2 3-6 4-9l-1-3-2-3c-6-5-19-17-28-13-11 5 0 21 4 26z" fill="#ceab8b"/><path d="M206 473c-2 2-2 4-2 7s2 6 6 7l32 9s2-12-4-16l-13-8c-7-4-15-5-19 1z" fill="#18bdf7"/><path d="M204 532c-2-1-2-37 0-57l37 18c0 17-2 30 0 51z" fill="#18bdf7"/><path d="M229 547c-10-3-18-7-23-13-3-1-3-4 0-6h10l23 13c3 2 2 4-1 6s-7 2-9 0z" fill="#18bdf7"/><path d="M241 493l-6-3c0 17-2 30 0 50l-3 3c-3 2-7 2-10 1l-12-6c5 4 12 7 19 9 2 2 6 2 9 0l3-3c-2-21 0-34 0-51z" fill="#18bdf7"/><path d="M234 477c-9-2-15 4-17-8h4c2 2 5 4 8 3l3 2z" fill="#fff"/><path d="M233 489c1 5 1 11 3 16 1 5 4 11 8 15 10 9 18-12 20-19 1-4-5-5-7-1-1 4-3 10-6 14-2 1-2 1-4-1-5-7-6-16-7-24 0-5-7-5-7 0z" fill="#ffaa82"/><path d="M232 488c2 18 7 29 15 35 4 2 7-5 6-8-8-7-10-18-11-30-1-2-4-3-7-3-2 1-4 4-3 6z" fill="#18bdf7"/><path d="M253 512c0 3 1 9-3 11h-2l-2-1c-1 0-2-2-1-3l3-7 3-2z" fill="#fff"/><path d="M260 501l-7-5-1-2 8-15h1l7 5v2l-7 15z" fill="#18bdf7"/><path d="M261 486l-9 8 8-15h1l7 5 1 1z" fill="#18bdf7"/><path d="M259 501l-7-5v-2l7-14 1-1 7 5 1 2-8 15z" fill="#1737a2"/><path d="M267 487v1l1-1zm0 2l-1 1z" fill="#45446c"/><path d="M260 499l-7-6 6-12 8 5-7 12z" fill="#dbedff"/><path d="M265 484l-3-2h1l2 1z" fill="#8787cc"/><path d="M263 499l1-2-2 3v-9l2-1 1 1v4z" fill="#ffaa82"/><path d="M683 373l-128-72c-1-1-1-2 1-3l60-35h5l128 72c2 1 1 2 0 3l-60 35z" fill="#c3d5e3"/><path d="M694 234c3 1 5 5 5 7l-3 119c-1 2-3 3-5 2L494 248c-2-1-5-5-4-7l3-119c0-2 2-3 5-2z" fill="#f4f4f4"/><path d="M704 209v-1l-1-1v-1a3 3 0 0 1 0-1h-1v-1a13 13 0 0 0-1 0v-1a7 7 0 0 0-1-1h-1l-5-3L503 89v-1a5 5 0 0 0-1 0 7 7 0 0 0-1 0v-1h-1v1h-1l-5 3v-1h1a3 3 0 0 1 1 0 5 5 0 0 1 1 1 8 8 0 0 1 1 0l1 1 191 110h-1a1667 1667 0 0 0 6 3 9 9 0 0 1 1 1l1 1v1h1a9 9 0 0 1 0 1 10 10 0 0 1 0 1h1a7 7 0 0 1 0 1 8 8 0 0 1 0 1l-1 19-1-1-5 3 2 1 1 1 1 1v1h1a9 9 0 0 1 1 2 9 9 0 0 1 0 1l-2 89-2 4 2-1-1 26-1 4 4-4 2-4 3-114v-2l1-27z" fill="#c2c2c2"/><path d="M694 220c3 2 5 0 5 3l-3 123c0 3-3 3-5 2L494 234c-2-1-4-4-4-7l3-118c0-3 2-4 5-2z" fill="#9a9ca2"/><path d="M694 204c3 2 5 5 5 8l-3 118c0 3-3 4-5 2L494 219c-2-2-4 4-4 2l3-128c0-3 2-4 5-2z" fill="#9a9ca2"/><path d="M694 219c0-2-2-5-5-7L503 107c-2-2-4-1-4 1l-1 14v1l-3 100c0 2 3 6 6 7l183 105c3 1 5 0 5-2l1-14v-1z" fill="#e8e8e8"/><path d="M691 370v-8l-7 5-2-4-189-109h-9l-82 47v-1l-13 6-2-1 1 6 1 2 197 114c2 2 6 2 9 0l94-54c2-1 2-2 2-3z" fill="#9a9ca2"/><path d="M586 420L389 306c-2-1-2-4 1-5l94-55h9l197 114c2 1 2 3-1 5l-94 54c-3 2-7 2-9 1z" fill="#f4f4f4"/><g fill="#7fb0f0"><path d="M496 267h-1l-12-7-1-1 8-4h2l11 7h1zm14 21l-2-1-12-6v-1l8-5h1l12 7 1 1zm-7 8h-2l-12-7v-1l8-4h1l12 7 1 1zm-19 2h-2l-12-7v-1l8-5 1 1 12 6 1 1zm-33-5h-2l-11-7-1-1 10-5h1l12 7v1zm20 12h-1l-16-9v-1l9-6 2 1 15 9h1zm103 59h-1l-12-7 3-2h1l12 7h1zm16 10h-1l-12-7v-1l3-2h1l12 7 1 1zm17 9h-1l-12-7s-1 0 0 0l3-2h1l12 7h1zm-10-13h-1l-12-7-1-1 4-2 1 1 12 7zm-43-18h-2l-77-45h-1l10-6h1l78 45v1z"/><path d="M469 302l-9-5 1-1 9 5v1zm-23-15l-4-2h1zm54 20h-1l-12-7v-1l7-4h2l12 7v1zm17 10h-2l-12-7v-1l8-5h1l12 7v1zm16 9h-1l-12-7-1-1 8-4h2l12 7v1zm16 10h-1l-12-7v-1l8-5h1l12 7v1zm17 9h-1l-12-7-1-1 8-4h2l12 7v1zm16 10h-1l-12-7v-1l8-5h1l12 7v1zm37 21h-1l-32-19-1-1 8-4h2l32 19v1zm-100-70l-1-1-12-6v-1l7-5h2l12 7v1zm17 9h-2l-12-7v-1l8-4h1l12 7c1 0 1 0 0 0zm16 10l-1-1-12-6-1-1 8-5h2l12 7v1zm16 9h-1l-12-7v-1l8-4h1l12 7c1 0 1 0 0 0zm17 10l-1-1-12-7h-1l8-5h2l12 7v1zm16 9h-1l-12-7v-1l8-4h1l12 7s1 0 0 0zm17 10l-1-1-12-7h-1l8-5h2l11 7 1 1zm-92-66h-1l-12-7v-1l7-4h2l12 7zm17 10l-2-1-12-7 8-5h1l12 7v1zm16 9h-1l-12-7-1-1 8-4h2l12 7zm16 10l-1-1-12-7 8-5h1l12 7v1zm17 9h-1l-12-7-1-1 8-4h2l12 7zm16 9h-1l-12-7 8-5h1l12 7v1zm17 10h-1l-12-7-1-1 8-4h2l11 7h1zm-132-76h-1l-20-12-1-1 8-4h2l20 12zm159 79h-1l-20-12h-1l8-5h2l20 12v1zm-166-70l-1-1-24-13-1-1 8-5h2l24 14v1zm-19 1h-1l-16-9v-1l7-5 2 1 16 9v1zm45-12h-1l-12-7s-1 0 0 0l8-5h1l12 7v1zm17 10h-2l-12-7v-1l8-4h1l12 7h1zm16 9h-1l-12-7c-1 0-1 0 0 0l8-5h1l12 7v1zm17 10h-2l-12-7v-1l8-4h1l12 7c1 0 1 0 0 0zm16 9h-1l-12-7c-1 0-1 0 0 0l7-5h2l12 7v1zm16 10h-1l-12-7v-1l8-4h1l12 7c1 0 1 0 0 0zm17 9h-1l-12-7h-1l8-5h2l12 7v1zm16 10h-1l-12-7v-1l8-4h1l12 7s1 0 0 0zm10 8h-1l-8 5 3 2-10 6v1l8 5h1l19-11v-1z"/><path d="M465 284l-9-5 10 5z"/></g><g><path d="M418 402c-2-1-3 0-3 2l-6 22-35-20 6-22-1-4-1-1-3 2-6 24-1 2-7 29-1 1-7 29v1l-9 31v1l-8 29v2l-8 30c-1 2 0 4 1 4 1 1 2 0 3-2l7-28 35 20-7 28c-1 2 0 4 1 5 1 0 3 0 3-2l48-179zm-11 30l-6 24-35-20 6-24zm-15 55l-35-20 7-25 35 20zm-8 31l-35-20 7-25 35 20zm-43 11l7-25 35 20-7 25z" fill="#9c7062"/></g><path d="M779 616l-171-99 170-98 173 99z" fill="#e9f5ff"/><path d="M779 616l1 96 171-98v-96z" fill="#a8c4e5"/><path d="M608 517v97l172 99v-97z" fill="#e0ebf5"/><g><path d="M627 183l-3 107 53 31 2-107z" stroke-miterlimit="10" fill="#fff" stroke="#b3ddff"/><path d="M668 235l-24-14v-4l24 13zm-1 19l-24-14 1-4 23 14zm0 19l-24-14v-4l24 14z" fill="#18bdf7"/><path d="M638 220l-5-3-1-3v-5l1-1 5 3 1 3v5zm-1 20l-4-3-2-2v-5l2-1 4 3 2 2v5c0 1-1 2-2 1zm0 21l-5-3-1-3v-5l1-1 5 3 1 3v5z" fill="#737ea2"/><path d="M650 300l-28-16c-3-2-6-8-6-13v-2c0-5 3-7 7-5l27 16c4 2 7 8 7 13v2c0 5-3 7-7 5z" fill="#ff5c97"/><path d="M648 289l-24-14-1-1 1-1 24 14 1 2z" fill="#fff"/></g><g><path d="M614 182v-1l-105-61-2 96 105 62z" fill="#fff"/><path d="M603 256l-89-52 2-72 88 52zm-59-107l-1 72m31-54l-1 71m-58-93l89 51m-89-39l89 51m-89-39l89 51m-1 12l-88-51m88 63l-89-51" stroke-miterlimit="10" fill="none" stroke="#b3ddff"/><path d="M539 226l-4-2-1-2 1-1 4 2 1 2zm30 17l-4-2-1-1 1-1 4 2 1 2zm30 19l-4-3-1-1 1-1 4 2 1 2z" fill="#1737a2"/><path d="M604 222c-12-5-15 13-20 10-6-2-5-22-11-26s-5 17-11 14-2-26-12-31c-12-6-4 25-15 21-9-4-1-14-10-19-4-3-11 6-11 6v7l89 52z" fill="#18bdf7"/></g><path d="M823 538l-60-34-8-76c2-1 5-2 6-1l128 73c1 0 1 2-1 3l-59 35z" fill="#c3d5e3"/><g><path d="M827 537l-70-43c-4-2-8-9-8-14V333c0-6 4-8 8-6l70 41c4 2 8 9 8 14v146c0 4-1 5-4 6z" fill="#d3e1ed"/><path d="M782 396s-33 89-33 84l-3-151 6-3 5 1 70 40 5 6z" fill="#dbefff"/><path d="M821 538l-71-41c-4-2-7-9-7-14V336c0-6 3-9 8-6l70 40c4 3 7 9 7 15v147c0 6-3 8-7 6z" fill="#596078"/><path d="M831 396v8l1 1v-11zm0 14v9h1v-10z" fill="#2c4482"/><path d="M819 513l-69-40-1-2V347c0-2 2-3 4-2l68 40 1 2v124c0 1-2 3-3 2z" fill="#9bbcd4"/><path d="M798 366l-22-13-1-2c0-1 0-2 1-1l22 12 1 3z" fill="#fff"/><path d="M755 467l57 34" stroke-miterlimit="10" fill="none" stroke="#fff" stroke-linecap="round" stroke-linejoin="round"/><path d="M771 471l-16-10v-30l16 10z" fill="#ff5c97"/><path d="M792 483l-17-10v-20l17 10z" fill="#fff"/><path d="M813 495l-17-10v-39l17 10z" fill="#ffd22d"/><g stroke-miterlimit="10" fill="none" stroke="#fff"><path d="M757 360l54 31m-53-2l53 31m-53-2l53 31m-27-45l-26-15-1-29 27 15zm27 16l-27-16v-29l27 16z"/><path d="M785 434l-27-16v-29l26 15z"/><path d="M811 449l-26-15-1-30 27 16zm-26-15l-27-16m27 16l26 15"/></g><path d="M759 417l14-8 16-1 18-10" stroke-miterlimit="10" fill="none" stroke="#1737a2" stroke-linecap="round" stroke-linejoin="round"/><path d="M804 396l4 1-2 4" stroke-miterlimit="10" fill="none" stroke="#1737a2" stroke-linecap="round" stroke-linejoin="round"/></g><path d="M601 157c0 1-1 2-2 1l-2-3c0-2 1-2 2-2z" fill="#fff"/><g><path d="M752 366l-48-28v48l48 28z" stroke-miterlimit="10" fill="#fff" stroke="#b3ddff"/><path d="M721 390l-9-6v-15l9 6z" fill="#ff9359"/><path d="M733 397l-10-6 1-10 9 6z" fill="#18bdf7"/><path d="M745 404l-9-6v-20l10 6z" fill="#ff5c97"/><path d="M720 367l-7-5-2-2 2-1 7 5 1 2c1 1 0 1-1 1zm13 7l-8-4-1-2 1-1 8 4 1 2c0 1 0 2-1 1z" fill="#18bdf7"/><path d="M741 364l-28-16-2 1 2 3 27 15h2z" fill="#1737a2"/></g><g transform="translate(-244 -50)"><path d="M918 825c-9 6-24 7-34 2-9-5-9-14 0-20s24-7 33-2 10 14 1 20z" fill="#dbefff"/><path d="M922 645c0-2 0-3 2-4s5-1 6 3l6 16c1 1-1 3-3 2l-2-5 2 6c1 1-1 3-2 2-2-1-5-3-5-7s-2-10-4-13z" fill="#492817"/><ellipse ry="3" rx="2" cy="645" cx="921" transform="rotate(147 919 643)" fill="#ff9359"/><path d="M900 701l2 1 5-2v-1c0-2-1-2-3-3l-1-2-3-2c-2-1-6-3-7 0v4l3 3z" fill="#ffc2b0"/><path d="M907 698l-2-4-2-1-6-2c-1 1 0 3 1 4 1 2 4 3 6 4h1s0-1 0 0z" fill="#ffc2b0"/><path d="M906 697l2 2-4 5-2-2z" fill="#d0e7f4"/><path d="M891 809l10-8 6-1c2 8 1 7-2 9l-8 5c-5 3-6 3-9 2-2-2 0-4 3-7zm11 7l10-7 6-1c2 7 1 6-1 8l-9 6c-5 2-6 2-9 1-1-2 0-4 3-7z" fill="#47000d"/><path d="M921 674c-4-3-11-5-16-5v2c5 0 11 1 14 5 1 1 2-1 2-2z" fill="#fff"/><path d="M900 674l-6 39c-1 6-10 3-9-3 3-12 4-23 5-36 1-6 10-6 10 0z" fill="#d84177"/><path d="M902 723c0 26 1 52 5 78 1 6-8 8-9 2-4-26-6-53-6-80 0-6 10-6 10 0zm13 7l3 79c0 6-9 6-9 0 0-26-3-52-4-79 0-6 9-6 10 0z" fill="#ffb491"/><path d="M924 733c-1 14-10 15-18 10-9-5-14-16-14-26 0 0 5-15 14-10 8 5 19 11 18 26z" fill="#d84177"/><path d="M894 678s-6 9-5 14c0 4 3 8 3 9 3 9 2 12 2 14 0 0 2 9 23 1l9-27z" fill="#d84177"/><path d="M925 695l1-2c0-5 3-7-2-15-1-1-12-7-21-8-4-1-8 1-9 5l-2 7c-1 8 3-3 4 2v-1a5957 5957 0 0 0 2 22l15 11 8-14z" fill="#d84177"/><path d="M904 669s-7 8-1 13c6 6 17-6 17-6-6-4-11-6-16-7z" fill="#ffb491"/><path d="M892 717l-5 35v2c2 2 12 9 34 5 3 0 3 0 3-2l-1-28h-13z" fill="#d84177"/><path d="M907 674l-3-14 8 3 3 11c1 2-5 7-8 0z" fill="#ffb491"/><path d="M901 670l-1 8c0 3 1 4 4 5 6 3 12-3 16-7 1 0 0-2-1-1-4 4-10 9-15 6-4-2-1-7-1-11z" fill="#fff"/><path d="M904 670l-2-1c-4-1-6-5-5-9l4-13c1-4 5-6 9-5l2 1c4 1 6 5 5 9l-4 13c-1 4-5 6-9 5z" fill="#ffb491"/><path d="M906 670h5s-2 2-5 2z" fill="#ea8a6c"/><path d="M909 647s3 10 6 13l-1 2-1 7h1s20-11 7-24c-8-10-22-5-22 5z" fill="#492817"/><path d="M915 666c-2 0-3 0-3-2l3-4 2 2zm-35 55l3 2h4l1-1c0-1 0-3-2-4l-3-2h-4l-1 1c0 1 0 3 2 4z" fill="#ffb491"/><path d="M907 717v-1l-1 1v-1l-26-14h-1l-11 6-2 1v1h1l26 15h1l13-7z" fill="#a8c4e5"/><path d="M893 724l-27-15 1-1 12-7h1l27 15v1l-13 7z" fill="#e1eaf4"/><path d="M895 714l-7-3v-1l3-1h1l6 3v1z" fill="#a8c4e5"/><path d="M892 707l-1-2-26-15h-1l-1 1h1l2 16 2 2 24 14 1 1h2z" fill="#fff"/><path d="M893 725l-26-15-1-2-3-16 1-1 26 15 1 2 3 16z" fill="#7d85a2"/><path d="M879 709l-2 1-2-3 2-1z" fill="#fff"/><path d="M927 682c3 6 6 12 7 19 1 5 1 13-3 17-3 4-9 3-13 3l-9-3-3-1h-1c-5 1-7-6-2-7 3-1 7 1 10 2s9 3 12 2 2-9 2-12c-1-6-4-11-6-16s4-8 6-4z" fill="#ffb491"/><path d="M929 681c5 11 6 22 6 33 0 5-10 5-10 0 0-10-1-21-6-31-2-4 7-7 10-2z" fill="#d84177"/><path d="M894 715c-1-2 0-4 2-5l5-1 5 2v1c0 2-1 4-3 4l-5 2c-2 0-3-1-4-3z" fill="#ffb491"/></g><g><path d="M720 556c-11 6-27 5-38 0s-10-16 0-22 27-6 38 0c10 6 10 16 0 22z" fill="#c3d5e3"/><path d="M691 535l-11 2-2 4c0 3 0 4 2 6 1 1 4 0 6-1l7-4c6-3 5-5 5-7-1-2-4-2-7 0zm24 13l-11-3-3 2c-2 3-3 4-2 6s4 3 6 3h8c7 0 7-2 8-4 0-2-2-3-6-4z" fill="#161616"/><path d="M676 409c-6 9-8 21-11 32v6l5 22c1 4 7 4 7 0a105 105 0 0 0-6-25v-1c2-11 5-22 11-31 2-4-3-7-6-3z" fill="#ffc2b0"/><path d="M675 411c-5 7-8 20-10 29-1 3-1 6 1 6h6l5-5 7-25c1-4 0-8-2-9h-1c0-1-3-1-6 4z" fill="#88bdeb"/><path d="M694 457l-29 17c-1 1-3 0-3-2v-20l1-2 29-17c1-1 3 0 3 2v20z" fill="#63697a"/><path d="M683 451c0 3-2 6-4 7s-3 0-3-2c0-3 1-6 3-7s4 0 4 2z" fill="#fff"/><path d="M678 470l-2 1c-1 1-3 0-4-2-1-1 0-3 2-4l2-1c1-1 3 0 4 2 1 1 0 3-2 4z" fill="#ffb491"/><path d="M700 391c4 3 4-2 4-2v-1c-5-4-9-4-9-4s0 5 5 7zm-4-6s3 0 7 3v1s0 3-3 2c-4-2-4-6-4-6z" fill="#513554"/><path d="M706 390l-3-1v-2l3 2zm-10-5h-1v-1s0-1 0 0h1zm17 8l-1-1h1l1 1z" fill="#513554"/><path d="M713 392s-4-4-8-4v2s0 4 5 6 3-4 3-4zm-3 3c-4-1-4-4-4-4v-1l6 2s1 5-2 3z" fill="#2c4482"/><path d="M707 391c-1 0-1 0 0 0v-1h1v1l-1 1z" fill="#2c4482"/><path d="M697 387v-1l1-1v1z" fill="#fcfeff"/><path d="M696 479c4 13 4 26 4 39l-2 29c1 6 10 6 10 0l2-30c0-13 0-27-5-40-2-6-11-4-9 2zm-20-11l4 25 1 14-3 30c0 6 10 6 10 0l2-30v-15l-4-26c-2-6-12-4-10 2z" fill="#616191"/><path d="M684 481l-2-3c3 2 16 11 19 11 4 0 2-3 4-6 2-2 3-5 3-9v-2l-2-2c-6-5-18-16-26-13-10 5 0 19 4 24z" fill="#616191"/><path d="M677 409c-2 2-2 4-1 7 0 3 2 6 5 7l30 8s2-12-4-15l-12-7c-6-4-14-5-18 0z" fill="#dbefff"/><path d="M691 409l2-12 7 5-2 10c0 2-8 1-7-3z" fill="#ffb491"/><path d="M695 381s-7-5-7 7c0 8 5 15 12 18 4 2 9 0 9-5 1-5 1-11-1-16 1-5-3-3-9-3z" fill="#ffb491"/><path d="M691 404s-8-3-7-15 12-11 18-12c3 0 5 0 8 2 2 3 0 8-4 8l-1 6-3 6c0 2-3 5-5 5z" fill="#492817"/><path d="M675 464c-1-1-1-34 1-52l34 16c0 15-2 28-1 47z" fill="#dbefff"/><path d="M698 478c-8-3-16-6-21-12-2-2-2-4 1-5 2-2 6-2 9-1l21 12c2 2 2 4-1 6z" fill="#dbefff"/><path d="M710 428l-6-3c0 15-2 27 0 46l-2 3c-3 2-7 2-9 0l-12-4 17 8h9c2-1 2-2 2-3-1-19 1-32 1-47z" fill="#dbefff"/><path d="M713 393l-10 1h-1l1-1 10-1 1 1z" fill="#2c4482"/><path d="M703 414c-8-2-13 3-15-8 1-1 2 0 3 1 2 2 4 3 8 3l2 1z" fill="#dcefff"/><path d="M704 424l4 18c2 4 4 11 9 13 9 6 19-9 24-15 2-3-3-7-6-3-2 3-12 18-17 11-5-6-7-16-8-24 0-4-6-4-6 0z" fill="#ffb491"/><path d="M701 424c2 16 7 26 14 31 4 2 7-4 6-7-7-6-10-16-11-27 0-2-3-4-6-3-2 1-4 3-3 6z" fill="#fff"/><path d="M733 442l1 1c1 1 4 1 5-1l3-3c2-2 1-5 0-6l-1-1c-2-1-5-1-6 1l-3 4c-1 1-1 4 1 5z" fill="#ffb491"/><path d="M698 400s-1 8 6 7 6-9 6-9-6 2-7-5c-2-7-5 7-5 7z" fill="#492817"/><path d="M704 396c1 2 0 4-2 4s-3-2-3-3c0-2 1-4 3-4 1 0 2 1 2 3z" fill="#ffb491"/></g><g><path d="M476 464c1-1 2-3 1-5a95 95 0 0 1-2-31c0 2 0 0 0 0l1-2 1-2v-1h1v-1h1l2-2-10-6-6 8c-2 5-2 10-2 15a102 102 0 0 0 4 26l-6 8c-1 4-2 6 0 7 3 1 4 0 8-3l6-7zm3-42zm12-1l-6 9c-2 4-2 9-3 13l-5 24 2 5-4 10c-1 4-1 6 2 7 3 0 4-1 6-5l5-8v-6l5-23 1-6 1-3v-1l2-4-2 3c5-10 12-17 18-26z" fill="#c3d5e3"/></g><g><path d="M454 465l6-9 5-3c5 7 4 6 2 8l-6 8c-3 3-5 4-7 3-3-1-2-3 0-7zm15 14l4-11 5-4c5 6 4 6 3 8l-4 9c-3 3-4 4-7 4-2 0-2-3-1-6z" fill="#593333"/><path d="M494 361c-5 5-8 11-10 18l-4 21c-1 5-8 3-7-2l4-24c2-7 6-13 11-18 3-4 9 1 6 5z" fill="#ffb491"/><path d="M484 352l-8 17c-1 6 12 9 14 5l5-17c1-3 0-6-3-7s-7 0-8 2z" fill="#56547f"/><path d="M497 394l-22 8c-4 1-8 2-11 5-4 2-6 5-7 9-2 5-2 9-2 15 1 8 1 16 4 24 0 3 4 5 7 4s4-4 3-7a95 95 0 0 1-2-30c0 2 0 0 1 0v-2l1-2 1-1 1-1h-1a18 18 0 0 1 4-2h1l1-1 25-8c3-1 4-4 3-7s-5-5-7-4z" fill="#e8c4a6"/><path d="M506 404l-19 12c-3 3-7 6-8 11l-4 13-4 23c-1 7 10 10 11 3l5-23 1-6v-3l1-1c0-1-1 1 0 0 1-4 3-6 6-7l18-12c6-4-1-13-7-10z" fill="#e8c4a6"/><path d="M498 417l-14-8c-3-1-5-5-3-8 1-3 5-4 9-3l14 8c3 1 5 5 3 8-1 3-5 4-9 3z" fill="#8a7463"/><path d="M481 395c2 0 6-13 3-39l36 17c-2 18 2 18-4 39z" fill="#56547f"/><path d="M502 404c1 2 12-4 12-26 0-2 0-3 3-2l3-2c0 14 2 19-1 32 0 4-6 6-10 3z" fill="#56547f"/><path d="M507 415c-10-4-20-8-26-14-3-2-2-5 1-6 3-2 7-4 10-3l25 16c3 1 1 3-2 5v-2c-3 1-5 6-8 4z" fill="#56547f"/><path d="M517 409l-8-10c-13 19-23 4-27 2 6 6 15 10 24 13 3 2 8 2 11 0 3-1 3-4 0-5z" fill="#ff9359"/><path d="M486 350c-2 2-2 4-2 7 0 4 2 7 6 8l36 15s2-13-5-18l-14-10c-7-5-16-8-21-2z" fill="#56547f"/><path d="M501 356l-4-15 10 3 3 12c1 2-5 7-9 0z" fill="#ffb491"/><path d="M500 352c1 1 5-1 5-1l-4 3z" fill="#ea8a6c"/><path d="M524 370l4 19c1 5 3 13 1 18-5 8-20 5-28 7-4 1-7-6-2-7l13-2c4 0 9 1 10-3 1-5-1-12-2-16l-4-16c0-5 7-5 8 0z" fill="#ffb491"/><path d="M477 395c3 1 3 4 3 6l-4 6c-1 2-3 3-5 1-2-1-3-3-2-5l3-6c1-2 3-3 5-2z" fill="#ffc2b0"/><path d="M514 369l3 19c2 5 14 2 13-3l-5-18c-1-3-4-5-7-4-3 0-5 2-4 6z" fill="#56547f"/><path d="M504 413l-3-1h-2l-28-15h-1l-11 6-2 1v1l30 15c0 3 1 5 3 4l12-8 2-2z" fill="#a8c4e5"/><path d="M488 423l-34-18v-1l14-8h2l34 17v1l-15 9z" fill="#e1eaf4"/><path d="M489 411l-8-4 3-2h1l8 4z" fill="#a8c4e5"/><path d="M485 403l-2-2-33-18h-1l-1 2 1-1 5 19 2 2 31 16 1 2h1l1-1z" fill="#fff"/><path d="M488 424l-33-18-2-2-5-19h1l33 17 2 2 5 19z" fill="#7d85a2"/><path d="M469 405c1 1 0 2-2 1l-3-3c0-1 1-2 2-1z" fill="#fff"/><path d="M489 414c-1-3 0-5 2-6l8-2c2-1 5 0 6 3 1 2 0 4-3 5l-7 2c-2 1-5 0-6-2z" fill="#ffb491"/><path d="M499 353c-2 4 3 7 7 7 1-1 4-1 5-3v-5c-1-1-3 0-2 1v4l-4 1c-2 0-5-2-4-4 0-2-2-2-2-1z" fill="#fcfeff"/><path d="M501 352l-3 1c-4 0-8-3-9-7l-3-14c-1-4 2-7 6-8h3c4-1 8 2 9 7l3 13c1 4-2 8-6 8z" fill="#ffb491"/><path d="M498 334c-3 2-5 1-9 1-3-2-5-5-3-7l5-5c8-4 19-1 21 9 0 0 2 11-3 15-1 1-2 0-3-1 0 0 3-3-1-5l-3-4c0-2-3-3-4-3z" fill="#492817"/><path d="M508 344h-3v-4c1-2 2-2 3 0z" fill="#ffb491"/><path d="M489 334c0 1 9 2 13 8h2c1-2 1-5-1-8-3-4-14-1-14 0z" fill="#492817"/></g></svg>